<svg width="1920" height="800" xmlns="http://www.w3.org/2000/svg">
  <defs>
    <!-- Gradients -->
    <linearGradient id="heroGradient" x1="0%" y1="0%" x2="100%" y2="100%">
      <stop offset="0%" style="stop-color:#688c50;stop-opacity:0.7" />
      <stop offset="100%" style="stop-color:#a0c676;stop-opacity:0.85" />
    </linearGradient>
    
    <!-- Filters -->
    <filter id="softBlur" x="-50%" y="-50%" width="200%" height="200%">
      <feGaussianBlur in="SourceGraphic" stdDeviation="40" />
    </filter>
    
    <!-- Leaf shapes -->
    <g id="teaLeaf">
      <path d="M0,0 Q10,-10 8,10 Q20,0 12,20 Q25,15 10,30 Q20,40 0,35 Q-10,45 -10,30 Q-25,35 -15,20 Q-30,20 -15,10 Q-25,0 -10,5 Q-15,-10 0,0" 
            fill="#ffffff20" stroke="#ffffff10" stroke-width="0.5" />
    </g>
  </defs>
  
  <!-- Background -->
  <rect width="100%" height="100%" fill="url(#heroGradient)" />
  
  <!-- Organic Blobs -->
  <circle cx="400" cy="-100" r="400" fill="#ffffff10" filter="url(#softBlur)" />
  <circle cx="1600" cy="300" r="300" fill="#ffffff15" filter="url(#softBlur)" />
  <circle cx="200" cy="700" r="250" fill="#ffffff10" filter="url(#softBlur)" />
  <circle cx="1200" cy="100" r="200" fill="#ffffff08" filter="url(#softBlur)" />
  <circle cx="1800" cy="700" r="400" fill="#ffffff05" filter="url(#softBlur)" />
  
  <!-- Scattered Tea Leaves -->
  <!-- Row 1 -->
  <use href="#teaLeaf" transform="translate(100, 100) scale(1.5) rotate(15)" />
  <use href="#teaLeaf" transform="translate(350, 150) scale(2) rotate(45)" />
  <use href="#teaLeaf" transform="translate(600, 80) scale(1.2) rotate(-20)" />
  <use href="#teaLeaf" transform="translate(850, 180) scale(1.8) rotate(60)" />
  <use href="#teaLeaf" transform="translate(1100, 120) scale(2.2) rotate(-10)" />
  <use href="#teaLeaf" transform="translate(1350, 70) scale(1.4) rotate(30)" />
  <use href="#teaLeaf" transform="translate(1600, 140) scale(1.9) rotate(-40)" />
  <use href="#teaLeaf" transform="translate(1800, 90) scale(1.6) rotate(25)" />
  
  <!-- Row 2 -->
  <use href="#teaLeaf" transform="translate(200, 300) scale(1.7) rotate(-25)" />
  <use href="#teaLeaf" transform="translate(450, 330) scale(1.3) rotate(70)" />
  <use href="#teaLeaf" transform="translate(700, 280) scale(2.1) rotate(-5)" />
  <use href="#teaLeaf" transform="translate(950, 350) scale(1.1) rotate(35)" />
  <use href="#teaLeaf" transform="translate(1200, 320) scale(1.6) rotate(-30)" />
  <use href="#teaLeaf" transform="translate(1450, 270) scale(2) rotate(50)" />
  <use href="#teaLeaf" transform="translate(1700, 340) scale(1.5) rotate(-15)" />
  
  <!-- Row 3 -->
  <use href="#teaLeaf" transform="translate(150, 500) scale(1.4) rotate(20)" />
  <use href="#teaLeaf" transform="translate(400, 550) scale(1.8) rotate(-35)" />
  <use href="#teaLeaf" transform="translate(650, 520) scale(1.2) rotate(55)" />
  <use href="#teaLeaf" transform="translate(900, 580) scale(2) rotate(-8)" />
  <use href="#teaLeaf" transform="translate(1150, 530) scale(1.3) rotate(40)" />
  <use href="#teaLeaf" transform="translate(1400, 510) scale(1.9) rotate(-22)" />
  <use href="#teaLeaf" transform="translate(1650, 560) scale(1.5) rotate(65)" />
  <use href="#teaLeaf" transform="translate(1850, 540) scale(1.7) rotate(-18)" />
  
  <!-- Row 4 -->
  <use href="#teaLeaf" transform="translate(120, 700) scale(1.6) rotate(-12)" />
  <use href="#teaLeaf" transform="translate(370, 720) scale(2.2) rotate(28)" />
  <use href="#teaLeaf" transform="translate(620, 690) scale(1.4) rotate(-42)" />
  <use href="#teaLeaf" transform="translate(870, 730) scale(1.7) rotate(18)" />
  <use href="#teaLeaf" transform="translate(1120, 710) scale(1.9) rotate(-32)" />
  <use href="#teaLeaf" transform="translate(1370, 680) scale(1.3) rotate(48)" />
  <use href="#teaLeaf" transform="translate(1620, 740) scale(2) rotate(-5)" />
  <use href="#teaLeaf" transform="translate(1820, 700) scale(1.8) rotate(38)" />
  
  <!-- Bottom Wave -->
  <path d="M0,750 
           C200,700 400,780 600,740 
           C800,700 1000,770 1200,730 
           C1400,690 1600,780 1800,740 
           C1900,720 2000,750 2000,750 
           L2000,800 L0,800 Z" 
        fill="#f5f9f2" />
</svg> 