<svg width="200" height="200" viewBox="0 0 200 200" xmlns="http://www.w3.org/2000/svg">
  <defs>
    <pattern id="leaf-pattern" x="0" y="0" width="100" height="100" patternUnits="userSpaceOnUse">
      <!-- Leaf 1 -->
      <path d="M25,20 C45,5 65,25 45,50 C65,35 85,45 75,65 C60,55 40,65 25,20" 
            fill="#688c5033" stroke="#688c5022" stroke-width="1" />
      
      <!-- Leaf 2 -->
      <path d="M75,80 C95,65 115,85 95,110 C115,95 135,105 125,125 C110,115 90,125 75,80" 
            fill="#688c5033" stroke="#688c5022" stroke-width="1" />
            
      <!-- Small leaf 1 -->
      <path d="M15,70 C25,60 35,70 25,85 C35,75 45,80 40,90 C30,85 20,90 15,70" 
            fill="#a5c27533" stroke="#a5c27522" stroke-width="1" />
            
      <!-- Small leaf 2 -->
      <path d="M65,35 C75,25 85,35 75,50 C85,40 95,45 90,55 C80,50 70,55 65,35" 
            fill="#a5c27533" stroke="#a5c27522" stroke-width="1" />
    </pattern>
  </defs>
  
  <!-- Background fill with the pattern -->
  <rect x="0" y="0" width="200" height="200" fill="url(#leaf-pattern)" />
</svg> 